<svg xmlns="http://www.w3.org/2000/svg" width="49" height="44" fill="none" xmlns:v="https://vecta.io/nano"><path fill-rule="evenodd" d="M4.122 32.877c.483-3.092-.869-6.261-2.324-9.177l-.569-1.127-1.128-2.28c-.103-.222-.129-.476-.072-.719l.92-3.857a1.08 1.08 0 0 1 .73-.786c1.969-.62 8.258-2.854 8.823-6.137a.31.31 0 0 1 .093-.171l5.363-5.196c.134-.129.35-.114.468.031.504.636 1.907 2.053 3.995 1.355l-.648-.657c-.128-.124-.123-.331.005-.455l2.453-2.327c.056-.057.134-.088.216-.088h7.476c.267 0 .416.315.247.522L27.769 4.74c-.118.15-.087.367.072.471l2.531 1.661 2.353 1.545c.782.512 1.836.191 2.19-.677.396-.967.766-2.471.771-4.71 0-.036.005-.078.02-.114L36.746.216c.098-.248.437-.274.571-.041.509.889 1.419 2.776 1.419 4.979l.499-.362c.139-.103.334-.072.437.062l1.09 1.427a.34.34 0 0 1 .062.222c-.072.77-.273 5.015 3.435 6.716.067.031.123.083.154.15l4.525 9.1a.35.35 0 0 1 .031.145v3.831c0 .584-.247 1.137-.684 1.525-1.774 1.582-6.412 5.972-6.694 9.012-.015.16-.149.284-.314.284h-7.975c-.051 0-.103-.01-.149-.036-.514-.279-3.229-3.857-3.779-7.326-.041-.258-.365-.357-.545-.16l-1.784 1.985c-.165.186-.401.29-.648.29a.56.56 0 0 1-.55-.465c-.206-1.21-1.121-4.374-4.957-4.374-2.057 0-5.26.796-8.232 1.696 0 0-3.291 1.034-5.723 4.343-.082.114-.216.181-.36.181H4.569c-.278 0-.488-.248-.447-.522zM40.52 43.202a.99.99 0 0 1-1.517.579c-1.049-.714-2.633-1.96-4.067-3.79-.211-.269-.02-.667.324-.667h5.707c.272 0 .468.253.401.517l-.848 3.361z" fill="#0e8784"/></svg>