<svg xmlns="http://www.w3.org/2000/svg" width="52" height="50" fill="none" xmlns:v="https://vecta.io/nano"><path fill-rule="evenodd" d="M28.274 5.094V.105L22.831.044 20.79 3.43l2.495 2.496 4.99-.832zm-5.821 5.821L15.8 4.261l-3.326 3.327 5.673 5.053 4.306-1.726zm6.995 3.891l-3.321-2.416.604-2.717 5.702-.421 7.484 5.82-1.663 4.99-2.495 1.664-2.495-1.664v-2.495l-2.495-3.326-1.321.565zm19.617 32.699h-1.663a.83.83 0 1 1 0-1.663h1.663a.83.83 0 1 1 0 1.663zm0-11.642h1.663a.83.83 0 1 0 0-1.663h-1.663a.83.83 0 1 0 0 1.663zm-9.979 0l4.99-3.326V29.21l-4.99-4.99-3.326 3.326-3.326-3.326-3.326 2.495 3.326 4.158-2.495 4.99-2.495-4.158-5.821-2.495 3.326-6.653 2.495-3.326-5.821-3.326-3.326 3.326L7.484 8.42.832 15.904l1.954 8.051L0 26.715 2.495 34.2l19.958 9.979 2.495-4.158 4.99 3.326L33.264 50l4.158-6.653h6.653l.832-4.99-5.821-2.495z" fill="#0e8784"/></svg>