<svg xmlns="http://www.w3.org/2000/svg" width="24" height="24" fill="none" xmlns:v="https://vecta.io/nano"><path fill-rule="evenodd" d="M13.489 3.003C9.975-.509 4.766-1.014 1.877 1.878S-.508 9.978 3 13.491c.936.936 2.014 1.652 3.153 2.165.373-2.171 1.444-4.257 3.07-5.97-.538-.192-1.09-.354-1.666-.512-3.411-.936-5.106-3.782-5.502-7.118.328.394.626.807.923 1.219.577.799 1.15 1.594 1.928 2.234 1.21.997 2.539 1.381 3.992 1.802l.169.049a7.17 7.17 0 0 1 1.836.84c1.443-1.055 3.07-1.757 4.75-2.046-.511-1.139-1.229-2.216-2.165-3.152zM7.546 16.489c.224-2.174 1.276-4.299 2.964-5.987 3.514-3.512 8.724-4.019 11.613-1.125s2.386 8.1-1.126 11.613c-1.687 1.688-3.813 2.741-5.986 2.965a8.76 8.76 0 0 1-.857.044c-1.869 0-3.538-.655-4.768-1.886-1.416-1.415-2.07-3.413-1.839-5.625zm5.14 1.784c1.152-.879 2.398-1.227 3.754-1.598 3.411-.936 5.104-3.782 5.502-7.118-.325.392-.621.802-.916 1.211-.579.802-1.154 1.599-1.936 2.242-1.214.998-2.545 1.383-4.005 1.806l-.156.045c-3.337.969-4.987 3.79-5.368 7.074.329-.395.63-.805.93-1.213.65-.886 1.293-1.761 2.195-2.45z" fill="#0e8784"/></svg>