<svg xmlns="http://www.w3.org/2000/svg" width="236" height="26" fill="none" fill-rule="evenodd" xmlns:v="https://vecta.io/nano"><path d="M75.651 23.304c0 .507-.255.76-.766.76h-8.997c-.217 0-.394-.063-.53-.19s-.204-.306-.204-.537a.77.77 0 0 1 .139-.479c.092-.121.236-.22.432-.297l.701-.215a.73.73 0 0 0 .407-.314c.098-.154.147-.375.147-.661v-9.554c0-.154-.038-.284-.114-.388s-.217-.201-.424-.289l-.945-.314c-.25-.121-.429-.251-.538-.388s-.163-.306-.163-.504.068-.361.204-.488l.053-.045c.13-.097.3-.146.509-.146h1.43l-.011-.097c-.031-.193-.107-.379-.229-.556l-.554-.802c-.206-.298-.391-.653-.554-1.066s-.245-.923-.245-1.529c0-1.444.489-2.598 1.467-3.463S69.235.444 71.039.444c1.163 0 2.127.187 2.893.562s1.339.873 1.719 1.496a3.84 3.84 0 0 1 .57 2.041c0 .871-.225 1.523-.676 1.959s-1.03.653-1.736.653c-.782 0-1.413-.253-1.891-.76s-.717-1.179-.717-2.017V2.907c0-.386-.076-.669-.228-.851s-.386-.273-.701-.273c-.402 0-.706.138-.913.413s-.31.672-.31 1.19c0 .529.122 1.025.367 1.488s.546.895.904 1.298l1.076 1.157c.358.369.66.733.904 1.091l.07.107c.132.215.22.428.264.641l.015.087h2.414c.25 0 .443.052.579.157s.204.267.204.488c0 .331-.141.601-.424.81s-.728.314-1.337.314h-1.157V21.32c0 .308.046.546.139.711s.242.265.448.298l1.402.215c.25.033.435.113.554.24s.179.3.179.521zm-32.092.38c-.978.474-2.119.711-3.423.711-1.38 0-2.616-.292-3.708-.876a6.4 6.4 0 0 1-2.583-2.537c-.63-1.108-.945-2.455-.945-4.041 0-1.532.329-2.901.986-4.107s1.573-2.16 2.746-2.86 2.543-1.05 4.107-1.05c1.336 0 2.464.198 3.382.595s1.619.934 2.102 1.612a3.82 3.82 0 0 1 .725 2.273c0 .882-.253 1.573-.758 2.074s-1.192.752-2.062.752c-.891 0-1.567-.256-2.029-.769s-.693-1.215-.693-2.107v-1.058c0-.54-.098-.948-.293-1.223s-.473-.413-.831-.413-.682.146-.97.438-.511.73-.668 1.314-.236 1.306-.236 2.165c0 1.234.182 2.27.546 3.107s.861 1.466 1.491 1.884 1.347.628 2.151.628 1.478-.118 2.021-.355.962-.636 1.255-1.198c.163-.154.291-.253.383-.297s.182-.066.269-.066c.109.011.198.063.269.157s.1.24.09.438c-.087 1.08-.418 2.033-.994 2.86s-1.353 1.477-2.331 1.95zm16.568-.33c-1.222.672-2.643 1.008-4.262 1.008-1.576 0-2.958-.328-4.148-.983s-2.116-1.562-2.779-2.719-.994-2.496-.994-4.017c0-1.454.348-2.763 1.043-3.926s1.657-2.085 2.885-2.769 2.64-1.025 4.238-1.025c1.586 0 2.972.331 4.156.992s2.108 1.576 2.771 2.744.994 2.518.994 4.05c0 1.455-.345 2.758-1.035 3.909s-1.646 2.063-2.869 2.736zm-3.023-.711c-.337.066-.665-.083-.986-.446s-.625-.975-.913-1.835-.562-1.989-.823-3.388c-.25-1.399-.391-2.551-.424-3.455s.033-1.587.196-2.049.413-.733.75-.81c.337-.066.666.083.986.446s.627.975.921 1.835.571 1.989.831 3.388.405 2.554.432 3.463-.043 1.595-.212 2.058-.421.727-.758.793zm29.158 1.422c.511 0 .766-.253.766-.76 0-.22-.06-.394-.179-.521s-.304-.207-.554-.24l-1.402-.215c-.207-.033-.356-.132-.448-.298s-.138-.402-.138-.711V11.023h1.157c.609 0 1.054-.105 1.337-.314s.424-.479.424-.81c0-.22-.068-.383-.204-.488s-.329-.157-.579-.157h-2.414l-.015-.087c-.044-.213-.132-.426-.264-.641l-.07-.107c-.244-.358-.546-.722-.905-1.091l-1.076-1.157c-.359-.402-.66-.835-.905-1.298a3.14 3.14 0 0 1-.367-1.488c0-.518.103-.915.31-1.19s.511-.413.913-.413c.315 0 .549.091.701.273s.228.466.228.851v1.471c0 .837.239 1.51.717 2.017s1.108.76 1.891.76c.706 0 1.285-.218 1.736-.653s.676-1.088.676-1.959a3.84 3.84 0 0 0-.57-2.041c-.38-.623-.953-1.121-1.719-1.496s-1.73-.562-2.893-.562c-1.804 0-3.195.433-4.172 1.298s-1.467 2.019-1.467 3.463c0 .606.081 1.116.245 1.529s.348.769.554 1.066l.554.802c.122.178.199.363.229.556l.011.097h-1.43c-.209 0-.379.049-.509.146l-.053.045c-.136.127-.204.289-.204.488s.054.366.163.504.288.267.538.388l.945.314c.207.088.348.185.424.289s.114.234.114.388v9.554c0 .287-.049.507-.147.661a.73.73 0 0 1-.407.314l-.701.215c-.196.077-.34.176-.432.297a.77.77 0 0 0-.139.479c0 .231.068.41.204.537s.312.19.53.19h8.997zm12.762-.479c-1.054.54-2.271.81-3.651.81-1.521 0-2.858-.317-4.01-.95a6.82 6.82 0 0 1-2.697-2.661c-.647-1.141-.97-2.46-.97-3.959 0-1.576.312-2.956.937-4.141s1.529-2.107 2.714-2.769 2.608-.992 4.27-.992c1.413 0 2.63.278 3.651.835s1.806 1.311 2.355 2.264.823 2.014.823 3.182c0 .507-.136.906-.407 1.198l-.065.065c-.268.249-.637.373-1.109.373h-7.45l.016.076c.198.908.535 1.634 1.013 2.18.815.931 1.901 1.397 3.26 1.397.869 0 1.638-.198 2.307-.595s1.116-.948 1.344-1.653c.131-.143.247-.24.351-.289a.64.64 0 0 1 .269-.074c.108 0 .201.044.277.132s.114.237.114.446c0 1.08-.294 2.069-.88 2.967s-1.408 1.617-2.462 2.157zm-5.779-8.069l-.023-.791c0-1.036.076-1.851.228-2.446s.348-1.017.587-1.264.505-.372.799-.372c.38 0 .736.325 1.068.975s.497 1.73.497 3.24c0 .463-.206.694-.619.694h-2.534l-.002-.036zm21.361 8.069c-1.054.54-2.271.81-3.651.81-1.521 0-2.858-.317-4.009-.95s-2.051-1.521-2.698-2.661-.97-2.46-.97-3.959c0-1.576.313-2.956.938-4.141a6.68 6.68 0 0 1 2.713-2.769c1.185-.661 2.608-.992 4.271-.992 1.412 0 2.629.278 3.651.835s1.806 1.311 2.355 2.264.823 2.014.823 3.182c0 .507-.136.906-.408 1.198l-.065.065c-.267.249-.637.373-1.108.373h-7.451l.016.076c.198.908.535 1.634 1.013 2.18.815.931 1.902 1.397 3.26 1.397.869 0 1.638-.198 2.306-.595s1.117-.948 1.345-1.653c.13-.143.247-.24.35-.289a.64.64 0 0 1 .269-.074c.109 0 .201.044.277.132s.114.237.114.446a5.31 5.31 0 0 1-.88 2.967c-.587.898-1.407 1.617-2.461 2.157zm-5.779-8.069l-.023-.791c0-1.036.076-1.851.228-2.446s.348-1.017.587-1.264.505-.372.798-.372c.381 0 .736.325 1.068.975s.497 1.73.497 3.24c0 .463-.206.694-.619.694h-2.534l-.002-.036zm19.674 8.341c-.136.138-.334.207-.595.207h-8.15c-.239 0-.426-.066-.562-.198s-.204-.314-.204-.546c0-.176.041-.322.123-.438a1.33 1.33 0 0 1 .334-.322l.375-.149a.55.55 0 0 0 .293-.314c.054-.143.081-.38.081-.711v-8.397c0-.264-.029-.454-.089-.57s-.16-.207-.302-.273l-.423-.05c-.153-.088-.264-.182-.335-.281s-.106-.226-.106-.38c0-.176.055-.333.163-.471s.294-.256.555-.355l4.628-1.339c.272-.11.5-.187.685-.231a2.09 2.09 0 0 1 .473-.066c.184 0 .323.066.415.198l.03.048c.076.138.129.359.158.663l.124 2.568.028-.095.182-.515c.396-.986.921-1.719 1.573-2.198s1.363-.719 2.135-.719c.934 0 1.651.314 2.151.942s.75 1.581.75 2.86c0 1.267-.261 2.198-.782 2.793s-1.196.893-2.021.893c-.805 0-1.399-.204-1.785-.612s-.59-.986-.611-1.735l-.017-.661c-.011-.253-.059-.452-.146-.595s-.229-.215-.424-.215-.367.102-.513.306-.259.515-.335.934-.114.953-.114 1.603v5.818c0 .308.049.554.147.735s.25.295.456.339l1.223.248c.228.033.391.119.489.256s.146.3.146.488c0 .22-.068.399-.203.537zm13.03.504c1.619 0 3.04-.336 4.263-1.008s2.178-1.584 2.868-2.736 1.035-2.454 1.035-3.909c0-1.532-.331-2.882-.994-4.05a7.11 7.11 0 0 0-2.771-2.744c-1.184-.661-2.57-.992-4.156-.992-1.597 0-3.01.342-4.238 1.025s-2.189 1.606-2.885 2.769-1.043 2.471-1.043 3.926c0 1.521.332 2.86.995 4.017s1.589 2.063 2.778 2.719 2.573.983 4.148.983zm.253-2.165c.321.364.649.512.986.446s.59-.331.758-.793.239-1.149.212-2.058-.171-2.063-.432-3.463-.538-2.529-.831-3.388-.601-1.471-.921-1.835-.649-.512-.986-.446c-.337.077-.587.347-.75.81s-.228 1.146-.195 2.05.173 2.055.423 3.455c.261 1.399.535 2.529.823 3.388s.593 1.471.913 1.835zm20.838 2.198c.913 0 1.662-.168 2.249-.504s1.024-.736 1.312-1.198.432-.887.432-1.273c0-.165-.035-.303-.106-.413s-.166-.165-.285-.165c-.054 0-.103.011-.147.033s-.081.055-.114.099c-.054.198-.138.336-.252.413s-.237.116-.367.116c-.185 0-.323-.063-.416-.19s-.138-.295-.138-.504v-7.306c0-1.454-.492-2.581-1.475-3.38s-2.524-1.198-4.621-1.198c-1.63 0-2.991.204-4.083.612s-1.912.928-2.461 1.562-.823 1.281-.823 1.942c0 .705.204 1.242.611 1.612s.997.554 1.769.554c.945 0 1.689-.256 2.232-.769s.815-1.176.815-1.992v-1.256c0-.309.095-.548.286-.719a1.02 1.02 0 0 1 .709-.256c.304 0 .546.113.725.339s.269.532.269.917l-.001 4.818-.086-.019c-.262-.051-.566-.08-.911-.087l-.176-.002c-2.336 0-4.077.397-5.223 1.19s-1.72 1.901-1.72 3.322c0 1.08.394 1.967 1.182 2.661s1.833 1.041 3.137 1.041c.978 0 1.891-.201 2.738-.603.636-.302 1.153-.698 1.55-1.189l.022-.029.024.074c.126.357.355.677.689.96l.103.084c.603.468 1.453.703 2.551.703zm-5.615-3.116c.266.358.617.537 1.051.537l.094-.003c.185-.013.364-.064.537-.155l.053-.03v-4.242l-.081-.025c-.184-.05-.402-.074-.652-.074-.423 0-.763.198-1.018.595s-.383.981-.383 1.752c0 .738.133 1.287.399 1.645zm17.105 3.165c1.935 0 3.418-.446 4.45-1.339s1.548-2.11 1.548-3.653c0-.937-.173-1.758-.521-2.463s-.956-1.331-1.826-1.876-2.091-1.061-3.667-1.546c-.587-.187-1.04-.377-1.361-.57s-.54-.399-.66-.62-.179-.457-.179-.711c0-.375.136-.678.407-.909s.674-.347 1.206-.347c.739 0 1.437.248 2.095.744s1.383 1.344 2.176 2.546c.206.253.413.438.619.554s.402.152.587.107c.228-.066.369-.218.424-.454s.043-.576-.033-1.017l-.424-3.041c-.043-.32-.125-.545-.244-.678s-.277-.198-.473-.198c-.174 0-.391.061-.652.182l-.774.372c-.255.127-.448.19-.579.19-.119 0-.296-.066-.529-.198s-.563-.264-.986-.397-.973-.198-1.647-.198c-1.119 0-2.127.204-3.023.612s-1.603.989-2.119 1.744-.774 1.656-.774 2.702c0 .926.193 1.736.579 2.43s.975 1.289 1.768 1.785 1.793.898 2.999 1.207c.782.209 1.383.422 1.801.636s.706.449.864.702a1.57 1.57 0 0 1 .236.843c0 .408-.136.744-.407 1.008s-.685.397-1.239.397a3.41 3.41 0 0 1-1.491-.339c-.473-.226-.959-.614-1.459-1.165s-1.06-1.306-1.679-2.264a1.53 1.53 0 0 0-.627-.529.84.84 0 0 0-.709.017c-.229.088-.375.275-.44.562s-.049.639.048 1.058l.506 3.289c.076.331.184.551.326.661s.293.165.456.165c.185 0 .41-.061.676-.182l.799-.364c.266-.121.481-.182.644-.182s.377.061.644.182.614.242 1.043.364.97.182 1.621.182zm15.452-.62c-.717.38-1.565.57-2.543.57-1.652 0-2.893-.402-3.724-1.207s-1.247-2.072-1.247-3.802v-7.471c0-.231-.022-.408-.065-.529s-.152-.22-.326-.298l-.766-.248c-.185-.088-.304-.196-.359-.322s-.081-.284-.081-.471c0-.231.081-.422.244-.57a.86.86 0 0 1 .603-.223h.799c.098 0 .201-.039.31-.116s.255-.231.44-.463l3.015-2.529a2.81 2.81 0 0 1 .652-.603c.217-.138.434-.207.652-.207.25 0 .445.077.586.231l.045.055c.112.155.167.379.167.673v2.959h3.407c.239 0 .424.052.554.157s.196.267.196.488c0 .309-.136.573-.408.793l-.061.045c-.273.19-.688.285-1.243.285h-2.445v7.537c0 .826.139 1.438.416 1.835s.682.595 1.214.595a1.39 1.39 0 0 0 .636-.149 2.05 2.05 0 0 0 .53-.388c.157-.16.307-.339.448-.537l.407-.595c.109-.044.204-.025.286.058s.116.251.105.504c-.076.892-.323 1.678-.741 2.355s-.986 1.207-1.703 1.587zm10.675.57c1.38 0 2.597-.27 3.651-.81s1.875-1.259 2.461-2.157a5.31 5.31 0 0 0 .88-2.967c0-.209-.038-.358-.114-.446s-.168-.132-.277-.132c-.076 0-.165.025-.269.074s-.22.146-.35.289c-.228.705-.677 1.256-1.345 1.653s-1.437.595-2.306.595c-1.358 0-2.445-.466-3.26-1.397-.477-.546-.815-1.273-1.013-2.18l-.016-.076h7.451c.471 0 .841-.124 1.109-.373l.064-.065c.272-.292.408-.691.408-1.198 0-1.168-.274-2.229-.823-3.182s-1.334-1.708-2.355-2.264-2.239-.835-3.651-.835c-1.663 0-3.086.331-4.27.992a6.68 6.68 0 0 0-2.714 2.769c-.625 1.185-.937 2.565-.937 4.141 0 1.499.323 2.818.969 3.959s1.546 2.028 2.698 2.661 2.488.95 4.009.95zm-2.151-9.669l.023.791.002.036h2.534c.413 0 .619-.231.619-.694 0-1.51-.166-2.59-.497-3.24s-.687-.975-1.068-.975c-.293 0-.559.124-.798.372s-.435.669-.587 1.265-.228 1.41-.228 2.446zm19.102 9.339c.261 0 .459-.069.595-.207s.204-.317.204-.537a.82.82 0 0 0-.147-.488c-.098-.138-.261-.223-.489-.256l-1.223-.248c-.206-.044-.358-.157-.456-.339s-.147-.427-.147-.735v-5.818c0-.65.038-1.185.115-1.603s.187-.73.334-.934.317-.306.513-.306.337.072.424.215.136.342.147.595l.016.661c.022.749.225 1.328.611 1.736s.981.612 1.785.612c.826 0 1.499-.298 2.021-.893s.782-1.526.782-2.793c0-1.278-.25-2.231-.75-2.86s-1.217-.942-2.151-.942c-.772 0-1.483.24-2.135.719s-1.176 1.212-1.573 2.198l-.182.515-.028.095-.124-2.569c-.029-.304-.082-.525-.158-.663l-.03-.048c-.092-.132-.23-.198-.415-.198a2.09 2.09 0 0 0-.473.066c-.185.044-.413.121-.684.231l-4.629 1.339c-.261.099-.446.218-.554.355a.74.74 0 0 0-.163.471c0 .154.035.281.106.38s.182.193.334.281l.423.05c.142.066.242.157.302.273s.09.306.09.57v8.397c0 .331-.028.568-.082.711a.55.55 0 0 1-.293.314l-.375.149c-.141.099-.253.207-.334.322s-.122.262-.122.438c0 .231.067.413.203.546s.324.198.563.198h8.149zm17.162-.959c-1.032.893-2.515 1.339-4.449 1.339-.652 0-1.193-.061-1.622-.182s-.777-.242-1.043-.364-.481-.182-.644-.182-.377.061-.644.182l-.798.364c-.266.121-.492.182-.677.182-.163 0-.315-.055-.456-.165s-.25-.331-.326-.661l-.505-3.289c-.098-.419-.114-.771-.049-1.058s.212-.474.44-.562a.84.84 0 0 1 .709-.017c.234.099.443.276.627.529.62.959 1.179 1.713 1.679 2.264s.986.939 1.459 1.165a3.42 3.42 0 0 0 1.491.339c.554 0 .967-.132 1.239-.397s.407-.601.407-1.008a1.56 1.56 0 0 0-.236-.843c-.157-.253-.445-.488-.864-.702s-1.018-.427-1.801-.636c-1.206-.308-2.205-.711-2.999-1.207s-1.382-1.091-1.768-1.785-.579-1.504-.579-2.43c0-1.047.258-1.948.775-2.702s1.222-1.336 2.118-1.744 1.905-.612 3.024-.612c.673 0 1.222.066 1.646.198s.752.264.986.397.41.198.53.198c.13 0 .323-.063.578-.19l.774-.372c.261-.121.479-.182.652-.182.196 0 .354.066.473.198s.201.358.245.678l.423 3.041c.076.441.087.78.033 1.017s-.196.388-.424.454c-.185.044-.38.008-.587-.107s-.412-.3-.619-.554c-.793-1.201-1.518-2.05-2.176-2.546s-1.355-.744-2.094-.744c-.533 0-.935.116-1.206.347s-.408.535-.408.909c0 .254.06.49.18.711s.339.427.66.62.774.383 1.361.57c1.575.485 2.798 1 3.667 1.546s1.478 1.171 1.825 1.876.522 1.526.522 2.463c0 1.543-.516 2.76-1.549 3.653z" fill="#fff"/><path d="M14.389 4.447C10.875.935 5.665.43 2.776 3.322S.391 11.422 3.9 14.935c.936.936 2.014 1.652 3.153 2.165.373-2.17 1.444-4.257 3.07-5.97a22.98 22.98 0 0 0-1.666-.512C5.046 9.682 3.351 6.836 2.955 3.5c.328.394.626.807.923 1.219.577.799 1.15 1.594 1.928 2.234 1.21.997 2.539 1.381 3.992 1.802l.169.049a7.17 7.17 0 0 1 1.836.84c1.443-1.055 3.07-1.757 4.75-2.046-.511-1.139-1.228-2.216-2.165-3.152zM8.446 17.933c.223-2.174 1.276-4.299 2.964-5.987 3.514-3.512 8.724-4.019 11.613-1.125s2.387 8.1-1.126 11.613c-1.687 1.688-3.813 2.741-5.986 2.966a8.76 8.76 0 0 1-.857.043c-1.869 0-3.538-.655-4.768-1.886-1.416-1.415-2.07-3.412-1.839-5.625zm5.14 1.784c1.152-.879 2.398-1.227 3.755-1.598 3.411-.936 5.104-3.782 5.502-7.118-.325.392-.621.802-.916 1.211-.579.802-1.154 1.599-1.936 2.242-1.214.998-2.545 1.383-4.005 1.806l-.156.045c-3.337.969-4.987 3.791-5.368 7.074.329-.395.63-.805.93-1.213.65-.885 1.293-1.761 2.195-2.45z" fill="#0e8784"/></svg>