<svg xmlns="http://www.w3.org/2000/svg" width="42" height="51" fill="none" xmlns:v="https://vecta.io/nano"><path fill-rule="evenodd" d="M6.019 6.968h0l-.124-.074h.008l.01-.015c.007-.011.015-.022.021-.035l.035-.011h0l.035-.011c.065.047.088.096.112.147.012.025.024.051.041.078 2.464 1.547 3.842.717 4.806-1.442l.386-1.006c1.138-3.344 3.817-3.384 6.407-3.424l2.407-.146c1.828-.286 1.244 1.417.453 2.236-.261.274-.568.505-.887.744-.801.602-1.671 1.255-2.055 2.784l2.131.009 4.307-.023c2.619-.078 3.064.875 1.619 2.994-.316.467-.572.978-.828 1.487h0c-.319.636-.636 1.27-1.069 1.816-1.514 1.894-1.481 3.189 1.003 4.072.625.222 1.431.778 1.589 1.342.754 2.671 2.558 4.678 4.358 6.68 1.994 2.217 3.981 4.428 4.525 7.526l.058.395c.087.661.13.991 1.205.899 1.833-.172 4.003-.195 4.514 2.144.492 2.231-1.1 3.65-2.803 4.828-.232.158-.409.391-.606.651h0 0l-.277.352c.157.685.751.703 1.307.72s1.072.033 1.079.71c.011 1.128-1.197 1.653-2.033 1.911-4.264 1.325-8.756 1.775-13.128 1.686-2.334-.052-4.377.694-6.409 1.436-1.475.538-2.944 1.075-4.514 1.303a9.27 9.27 0 0 0-.686.138c-.832.189-1.722.392-3.075-.152 1.605-.583 2.665-1.765 3.733-2.955 1.594-1.776 3.205-3.572 6.67-3.426l-1.503-.63-.003-.001h0 0 0l-1.811-.735c-2.331-.842-2.642-2.478-.903-4.372.981-1.064 1.658-2.206-.564-2.667-1.222-.252-.93-.774-.607-1.354.233-.418.483-.866.193-1.263-.372-.511.85-.656 1.556-.567 2.089.27 5.042.631 4.231-2.422a21.79 21.79 0 0 1-.195-.821h0 0c-.461-2.052-1.12-4.987-4.494-4.542-3.656.481-4.803-.425-2.517-3.742-.465-.208-1.108.032-1.725.263-1.17.437-2.244.838-1.822-1.927.025-.175-.319-.594-.389-.575-.266.084-.537.348-.807.609h0c-.585.567-1.162 1.127-1.657-.159-.353-.917.244-1.16.945-1.444.712-.29 1.532-.623 1.569-1.753-.055-.179-.466-.183-.909-.187-.739-.007-1.566-.015-.969-.841 1.99-2.745.467-3.899-1.236-5.189h0 0L6.2 8.614c-.23-.179-.146-.45-.057-.739.042-.136.086-.277.098-.414l-.003-.015c.006-.146-.008-.279-.089-.399-.046-.032-.088-.055-.131-.079h0zM1.478 27.186c-.561-.092-1.2-.68-1.139-1.528.122-1.556 4.864-4.725 6.969-4.6 1.939.107 2.564 1.425 3.152 2.663.238.502.47.991.781 1.381-.092 1.833-1.2 2.869-2.392 2.875-2.34.029-4.698-.355-7.027-.735l-.345-.056zM8.192 1.878c-2.625.7-4.139 2.094-3.953 4.914-1.758.173-1.248.888-.778 1.547a7.48 7.48 0 0 1 .209.303c.136-.309.372-.599.616-.898h0c.155-.191.314-.385.451-.591l.463-.121h0l.731-.19c.237-.522.644-.963 1.057-1.411.842-.913 1.708-1.851 1.204-3.553zM3.575 9.425c.422-.147.308-.442.092-.783-.108.239-.172.489-.092.783z" fill="#0e8784"/></svg>